<svg width="121" height="19" viewBox="0 0 121 19" fill="none" xmlns="http://www.w3.org/2000/svg">
<path d="M15.4949 18.5C15.2567 18.5 15.0198 18.4314 14.8158 18.2947L10.0207 15.0662L5.22558 18.2947C5.02691 18.4289 4.78816 18.5007 4.54342 18.4999C4.29868 18.4991 4.06046 18.4257 3.86279 18.2903C3.66492 18.1556 3.51734 17.9657 3.44104 17.7478C3.36474 17.5298 3.36361 17.2948 3.4378 17.0761L5.22617 11.6573L0.47407 8.51354C0.277126 8.37708 0.130863 8.18595 0.0559717 7.96717C-0.0189199 7.74839 -0.01865 7.51305 0.0567435 7.29442C0.132732 7.07633 0.279805 6.88617 0.477176 6.75082C0.674547 6.61547 0.912235 6.54178 1.15665 6.54015L7.04225 6.53185L8.91609 1.24754C8.99342 1.02985 9.14174 0.840519 9.34004 0.706356C9.53834 0.572193 9.77658 0.5 10.021 0.5C10.2654 0.5 10.5037 0.572193 10.702 0.706356C10.9003 0.840519 11.0486 1.02985 11.1259 1.24754L12.9679 6.53185L18.8836 6.54015C19.1283 6.54145 19.3663 6.61511 19.5639 6.75066C19.7615 6.88621 19.9085 7.07677 19.9842 7.29525C20.0598 7.51374 20.0602 7.74905 19.9853 7.96775C19.9103 8.18645 19.7639 8.37742 19.5668 8.51354L14.8147 11.6573L16.603 17.0761C16.6774 17.2947 16.6764 17.5297 16.6002 17.7477C16.524 17.9657 16.3765 18.1556 16.1786 18.2903C15.9804 18.4268 15.7408 18.5003 15.4949 18.5Z" fill="#FFAC33"/>
<path d="M40.5361 18.5C40.2979 18.5 40.061 18.4314 39.857 18.2947L35.0619 15.0662L30.2668 18.2947C30.0681 18.4289 29.8294 18.5007 29.5846 18.4999C29.3399 18.4991 29.1017 18.4257 28.904 18.2903C28.7061 18.1556 28.5585 17.9657 28.4822 17.7478C28.4059 17.5298 28.4048 17.2948 28.479 17.0761L30.2674 11.6573L25.5153 8.51354C25.3183 8.37708 25.1721 8.18595 25.0972 7.96717C25.0223 7.74839 25.0225 7.51305 25.0979 7.29442C25.1739 7.07633 25.321 6.88617 25.5184 6.75082C25.7157 6.61547 25.9534 6.54178 26.1978 6.54015L32.0834 6.53185L33.9573 1.24754C34.0346 1.02985 34.1829 0.840519 34.3812 0.706356C34.5795 0.572193 34.8178 0.5 35.0622 0.5C35.3066 0.5 35.5449 0.572193 35.7432 0.706356C35.9415 0.840519 36.0898 1.02985 36.1671 1.24754L38.0091 6.53185L43.9248 6.54015C44.1695 6.54145 44.4075 6.61511 44.6051 6.75066C44.8027 6.88621 44.9497 7.07677 45.0254 7.29525C45.101 7.51374 45.1014 7.74905 45.0265 7.96775C44.9515 8.18645 44.8051 8.37742 44.608 8.51354L39.8559 11.6573L41.6442 17.0761C41.7186 17.2947 41.7176 17.5297 41.6414 17.7477C41.5652 17.9657 41.4177 18.1556 41.2198 18.2903C41.0216 18.4268 40.782 18.5003 40.5361 18.5Z" fill="#FFAC33"/>
<path d="M65.5772 18.5C65.3391 18.5 65.1021 18.4314 64.8982 18.2947L60.103 15.0662L55.3079 18.2947C55.1092 18.4289 54.8705 18.5007 54.6258 18.4999C54.381 18.4991 54.1428 18.4257 53.9451 18.2903C53.7473 18.1556 53.5997 17.9657 53.5234 17.7478C53.4471 17.5298 53.4459 17.2948 53.5201 17.0761L55.3085 11.6573L50.5564 8.51354C50.3595 8.37708 50.2132 8.18595 50.1383 7.96717C50.0634 7.74839 50.0637 7.51305 50.1391 7.29442C50.2151 7.07633 50.3621 6.88617 50.5595 6.75082C50.7569 6.61547 50.9946 6.54178 51.239 6.54015L57.1246 6.53185L58.9984 1.24754C59.0758 1.02985 59.2241 0.840519 59.4224 0.706356C59.6207 0.572193 59.8589 0.5 60.1033 0.5C60.3478 0.5 60.586 0.572193 60.7843 0.706356C60.9826 0.840519 61.1309 1.02985 61.2083 1.24754L63.0503 6.53185L68.9659 6.54015C69.2106 6.54145 69.4487 6.61511 69.6462 6.75066C69.8438 6.88621 69.9909 7.07677 70.0665 7.29525C70.1421 7.51374 70.1425 7.74905 70.0676 7.96775C69.9927 8.18645 69.8462 8.37742 69.6491 8.51354L64.897 11.6573L66.6854 17.0761C66.7597 17.2947 66.7587 17.5297 66.6825 17.7477C66.6063 17.9657 66.4588 18.1556 66.261 18.2903C66.0627 18.4268 65.8231 18.5003 65.5772 18.5Z" fill="#FFAC33"/>
<path d="M90.6184 18.5C90.3803 18.5 90.1433 18.4314 89.9394 18.2947L85.1442 15.0662L80.3491 18.2947C80.1504 18.4289 79.9117 18.5007 79.667 18.4999C79.4222 18.4991 79.184 18.4257 78.9863 18.2903C78.7885 18.1556 78.6409 17.9657 78.5646 17.7478C78.4883 17.5298 78.4871 17.2948 78.5613 17.0761L80.3497 11.6573L75.5976 8.51354C75.4007 8.37708 75.2544 8.18595 75.1795 7.96717C75.1046 7.74839 75.1049 7.51305 75.1803 7.29442C75.2563 7.07633 75.4033 6.88617 75.6007 6.75082C75.7981 6.61547 76.0358 6.54178 76.2802 6.54015L82.1658 6.53185L84.0396 1.24754C84.117 1.02985 84.2653 0.840519 84.4636 0.706356C84.6619 0.572193 84.9001 0.5 85.1445 0.5C85.389 0.5 85.6272 0.572193 85.8255 0.706356C86.0238 0.840519 86.1721 1.02985 86.2495 1.24754L88.0915 6.53185L94.0071 6.54015C94.2518 6.54145 94.4899 6.61511 94.6874 6.75066C94.885 6.88621 95.0321 7.07677 95.1077 7.29525C95.1833 7.51374 95.1837 7.74905 95.1088 7.96775C95.0339 8.18645 94.8874 8.37742 94.6903 8.51354L89.9382 11.6573L91.7266 17.0761C91.8009 17.2947 91.7999 17.5297 91.7237 17.7477C91.6475 17.9657 91.5 18.1556 91.3022 18.2903C91.1039 18.4268 90.8643 18.5003 90.6184 18.5Z" fill="#FFAC33"/>
<path d="M115.66 18.5C115.421 18.5 115.185 18.4314 114.981 18.2947L110.185 15.0662L105.39 18.2947C105.192 18.4289 104.953 18.5007 104.708 18.4999C104.463 18.4991 104.225 18.4257 104.028 18.2903C103.83 18.1556 103.682 17.9657 103.606 17.7478C103.529 17.5298 103.528 17.2948 103.603 17.0761L105.391 11.6573L100.639 8.51354C100.442 8.37708 100.296 8.18595 100.221 7.96717C100.146 7.74839 100.146 7.51305 100.221 7.29442C100.297 7.07633 100.445 6.88617 100.642 6.75082C100.839 6.61547 101.077 6.54178 101.321 6.54015L107.207 6.53185L109.081 1.24754C109.158 1.02985 109.306 0.840519 109.505 0.706356C109.703 0.572193 109.941 0.5 110.186 0.5C110.43 0.5 110.668 0.572193 110.867 0.706356C111.065 0.840519 111.213 1.02985 111.291 1.24754L113.133 6.53185L119.048 6.54015C119.293 6.54145 119.531 6.61511 119.729 6.75066C119.926 6.88621 120.073 7.07677 120.149 7.29525C120.225 7.51374 120.225 7.74905 120.15 7.96775C120.075 8.18645 119.929 8.37742 119.731 8.51354L114.979 11.6573L116.768 17.0761C116.842 17.2947 116.841 17.5297 116.765 17.7477C116.689 17.9657 116.541 18.1556 116.343 18.2903C116.145 18.4268 115.906 18.5003 115.66 18.5Z" fill="#BDBDBD"/>
</svg>
