<svg width="32" height="45" viewBox="0 0 32 45" fill="none" xmlns="http://www.w3.org/2000/svg">
<rect y="0.821289" width="31.2644" height="43.3571" rx="6.25287" fill="#2C3CCC" fill-opacity="0.13"/>
<path fill-rule="evenodd" clip-rule="evenodd" d="M8.08328 25.7422C9.37334 23.8992 11.7062 22.2197 15.6321 22.2197C19.558 22.2197 21.8909 23.8992 23.1809 25.7422C23.7991 26.6252 24.1477 27.5002 24.3432 28.1518C24.4416 28.4799 24.5034 28.7585 24.5415 28.9635C24.5605 29.0663 24.5738 29.1512 24.5828 29.2155C24.5873 29.2477 24.5908 29.2747 24.5933 29.2963L24.5966 29.3245L24.5977 29.3355L24.5982 29.3402L24.5984 29.3424C24.5986 29.3434 24.5986 29.3444 22.9242 29.5118L24.5986 29.3444L24.607 29.4279V37.9258H6.65723V29.4279L6.66558 29.3444L8.34002 29.5118C6.66558 29.3444 6.66568 29.3434 6.66578 29.3424L6.666 29.3402L6.66648 29.3355L6.66766 29.3245L6.6709 29.2963C6.67348 29.2747 6.67692 29.2477 6.68142 29.2155C6.69042 29.1512 6.70369 29.0663 6.72277 28.9635C6.76084 28.7585 6.82259 28.4799 6.92102 28.1518C7.11651 27.5002 7.46516 26.6252 8.08328 25.7422ZM10.0228 29.6287V34.5602H21.2414V29.6287C21.239 29.614 21.236 29.5971 21.2325 29.5781C21.2136 29.4763 21.1789 29.3167 21.1196 29.1189C20.9995 28.7188 20.7873 28.1915 20.4238 27.6722C19.7506 26.7105 18.4374 25.5853 15.6321 25.5853C12.8268 25.5853 11.5137 26.7105 10.8405 27.6722C10.477 28.1915 10.2647 28.7188 10.1447 29.1189C10.0853 29.3167 10.0507 29.4763 10.0318 29.5781C10.0282 29.5971 10.0253 29.614 10.0228 29.6287Z" fill="white"/>
<path fill-rule="evenodd" clip-rule="evenodd" d="M15.632 10.4398C13.7733 10.4398 12.2665 11.9466 12.2665 13.8054C12.2665 15.6641 13.7733 17.171 15.632 17.171C17.4908 17.171 18.9976 15.6641 18.9976 13.8054C18.9976 11.9466 17.4908 10.4398 15.632 10.4398ZM8.90088 13.8054C8.90088 10.0879 11.9145 7.07422 15.632 7.07422C19.3496 7.07422 22.3632 10.0879 22.3632 13.8054C22.3632 17.5229 19.3496 20.5365 15.632 20.5365C11.9145 20.5365 8.90088 17.5229 8.90088 13.8054Z" fill="white"/>
</svg>
