<svg width="24" height="25" viewBox="0 0 24 25" fill="none" xmlns="http://www.w3.org/2000/svg">
<path d="M8.61028 22.5C8.1223 22.4971 7.64849 22.3357 7.26028 22.04L5.19028 20.5C4.71259 20.1276 4.39563 19.5863 4.30451 18.9875C4.21338 18.3887 4.355 17.7777 4.70028 17.28C4.88297 17.0102 4.99907 16.701 5.03905 16.3777C5.07903 16.0543 5.04176 15.7261 4.93028 15.42L4.87028 15.26C4.79266 14.9829 4.65079 14.728 4.45619 14.5161C4.26158 14.3041 4.01974 14.141 3.75028 14.04H3.59028C3.00615 13.8436 2.52309 13.4247 2.24599 12.8742C1.96889 12.3237 1.92012 11.6862 2.11028 11.1L2.93028 8.5C3.00576 8.19876 3.14474 7.91713 3.33789 7.67396C3.53105 7.43078 3.77393 7.23169 4.05028 7.09C4.30763 6.9574 4.58921 6.8784 4.87798 6.85777C5.16674 6.83715 5.45669 6.87533 5.73028 6.97C6.02816 7.07025 6.34602 7.09624 6.65624 7.0457C6.96645 6.99516 7.25962 6.86962 7.51028 6.68L7.64028 6.58C7.86717 6.39895 8.05055 6.1693 8.17689 5.90796C8.30323 5.64663 8.36932 5.36027 8.37028 5.07V4.83C8.36759 4.21813 8.60673 3.62997 9.03563 3.19358C9.46453 2.75719 10.0485 2.50791 10.6603 2.5H13.2103C13.508 2.5008 13.8025 2.5604 14.0771 2.67538C14.3517 2.79036 14.6009 2.95845 14.8103 3.17C15.2506 3.61779 15.4951 4.22202 15.4903 4.85V5.13C15.4852 5.40575 15.545 5.67884 15.6649 5.92723C15.7847 6.17562 15.9613 6.39237 16.1803 6.56L16.2903 6.64C16.5147 6.8083 16.7765 6.91984 17.0534 6.96511C17.3302 7.01039 17.6139 6.98805 17.8803 6.9L18.2203 6.79C18.5083 6.69451 18.8127 6.65802 19.1152 6.6827C19.4176 6.70737 19.712 6.79272 19.9808 6.93364C20.2496 7.07456 20.4872 7.26817 20.6796 7.50292C20.8719 7.73767 21.015 8.00876 21.1003 8.3L21.8903 10.82C22.0731 11.4024 22.0231 12.033 21.7509 12.5793C21.4786 13.1256 21.0053 13.5452 20.4303 13.75L20.2303 13.82C19.9361 13.9163 19.6701 14.0834 19.4556 14.3066C19.2412 14.5298 19.0848 14.8022 19.0003 15.1C18.9207 15.3768 18.9018 15.6675 18.945 15.9523C18.9881 16.2371 19.0923 16.5092 19.2503 16.75L19.5103 17.13C19.8551 17.6304 19.9954 18.2438 19.9024 18.8444C19.8094 19.445 19.4902 19.9872 19.0103 20.36L17.0003 21.91C16.7574 22.0957 16.4792 22.2297 16.1826 22.3039C15.886 22.378 15.5774 22.3906 15.2757 22.3409C14.9741 22.2913 14.6858 22.1804 14.4286 22.0152C14.1714 21.8499 13.9508 21.6337 13.7803 21.38L13.6603 21.21C13.4965 20.9639 13.273 20.7632 13.0107 20.6268C12.7484 20.4904 12.4558 20.4227 12.1603 20.43C11.8783 20.4373 11.6019 20.5108 11.3535 20.6445C11.1051 20.7783 10.8916 20.9686 10.7303 21.2L10.5003 21.53C10.3297 21.7855 10.1086 22.0034 9.85067 22.1702C9.59269 22.3371 9.30328 22.4493 9.00028 22.5C8.87059 22.5127 8.73997 22.5127 8.61028 22.5ZM4.40028 12.12C4.96497 12.3214 5.4745 12.6525 5.88788 13.0867C6.30125 13.5209 6.60692 14.0461 6.78028 14.62V14.74C6.99621 15.3366 7.06712 15.9761 6.98713 16.6055C6.90715 17.235 6.67857 17.8363 6.32028 18.36C6.25704 18.4299 6.22201 18.5208 6.22201 18.615C6.22201 18.7092 6.25704 18.8001 6.32028 18.87L8.47028 20.5C8.49833 20.522 8.53077 20.5378 8.56542 20.5463C8.60007 20.5547 8.63613 20.5557 8.67118 20.549C8.70623 20.5424 8.73945 20.5284 8.76861 20.5078C8.79778 20.4873 8.82222 20.4608 8.84028 20.43L9.07028 20.1C9.41717 19.5988 9.88042 19.1891 10.4203 18.9062C10.9602 18.6232 11.5607 18.4754 12.1703 18.4754C12.7798 18.4754 13.3803 18.6232 13.9202 18.9062C14.4601 19.1891 14.9234 19.5988 15.2703 20.1L15.3903 20.28C15.4333 20.341 15.4974 20.3838 15.5703 20.4C15.6037 20.4049 15.6377 20.403 15.6704 20.3944C15.7031 20.3859 15.7336 20.3707 15.7603 20.35L17.8203 18.79C17.8924 18.7328 17.9398 18.6501 17.9529 18.5589C17.9659 18.4678 17.9435 18.3751 17.8903 18.3L17.6303 17.92C17.2915 17.426 17.068 16.8622 16.9763 16.2703C16.8845 15.6783 16.9269 15.0734 17.1003 14.5C17.276 13.8974 17.5939 13.3458 18.0272 12.8916C18.4605 12.4374 18.9966 12.0939 19.5903 11.89L19.7903 11.82C19.8736 11.7866 19.9404 11.7216 19.976 11.6392C20.0116 11.5567 20.0131 11.4636 19.9803 11.38L19.2003 8.89C19.1816 8.84643 19.1542 8.80713 19.1198 8.77446C19.0854 8.7418 19.0447 8.71647 19.0003 8.7C18.9708 8.68507 18.9383 8.67728 18.9053 8.67728C18.8723 8.67728 18.8397 8.68507 18.8103 8.7L18.4703 8.81C17.8951 8.99982 17.2825 9.04712 16.685 8.94783C16.0875 8.84855 15.5231 8.60564 15.0403 8.24L15.0003 8.15C14.537 7.79912 14.1613 7.34561 13.9028 6.82509C13.6442 6.30456 13.5099 5.73119 13.5103 5.15V4.84C13.5121 4.74362 13.4762 4.65033 13.4103 4.58C13.3527 4.52801 13.2778 4.49946 13.2003 4.5H10.6603C10.6195 4.50254 10.5797 4.51311 10.5431 4.53109C10.5064 4.54906 10.4737 4.5741 10.4467 4.60476C10.4198 4.63542 10.3992 4.6711 10.386 4.70976C10.3729 4.74841 10.3676 4.78927 10.3703 4.83V5.08C10.3703 5.67704 10.2333 6.26612 9.9698 6.80185C9.70627 7.33758 9.32326 7.80565 8.85028 8.17L8.72028 8.27C8.21001 8.65851 7.61201 8.91553 6.97898 9.01842C6.34594 9.12131 5.69732 9.0669 5.09028 8.86C5.04486 8.84476 4.9957 8.84476 4.95028 8.86C4.89384 8.89429 4.85134 8.94741 4.83028 9.01L4.00028 11.62C3.97135 11.7089 3.97813 11.8056 4.01918 11.8895C4.06024 11.9735 4.13236 12.0382 4.22028 12.07L4.40028 12.12Z" fill="#2523CA"/>
<path d="M12 16C11.3078 16 10.6311 15.7947 10.0555 15.4101C9.47993 15.0256 9.03133 14.4789 8.76642 13.8394C8.50152 13.1999 8.4322 12.4961 8.56725 11.8172C8.7023 11.1383 9.03564 10.5146 9.52513 10.0251C10.0146 9.53564 10.6383 9.2023 11.3172 9.06725C11.9961 8.9322 12.6999 9.00152 13.3394 9.26642C13.9789 9.53133 14.5256 9.97993 14.9101 10.5555C15.2947 11.1311 15.5 11.8078 15.5 12.5C15.5 13.4283 15.1313 14.3185 14.4749 14.9749C13.8185 15.6313 12.9283 16 12 16ZM12 11C11.7033 11 11.4133 11.088 11.1666 11.2528C10.92 11.4176 10.7277 11.6519 10.6142 11.926C10.5007 12.2001 10.4709 12.5017 10.5288 12.7926C10.5867 13.0836 10.7296 13.3509 10.9393 13.5607C11.1491 13.7704 11.4164 13.9133 11.7074 13.9712C11.9983 14.0291 12.2999 13.9994 12.574 13.8858C12.8481 13.7723 13.0824 13.58 13.2472 13.3334C13.412 13.0867 13.5 12.7967 13.5 12.5C13.5 12.1022 13.342 11.7206 13.0607 11.4393C12.7794 11.158 12.3978 11 12 11Z" fill="#2523CA"/>
</svg>
