<svg width="16" height="16" viewBox="0 0 16 16" fill="none" xmlns="http://www.w3.org/2000/svg">
<path d="M10.8599 9.52663L7.99986 12.3933L5.13986 9.52663C5.01432 9.40109 4.84406 9.33057 4.66653 9.33057C4.48899 9.33057 4.31873 9.40109 4.19319 9.52663C4.06766 9.65216 3.99713 9.82242 3.99713 9.99996C3.99713 10.1775 4.06766 10.3478 4.19319 10.4733L7.52653 13.8066C7.5885 13.8691 7.66224 13.9187 7.74347 13.9526C7.82471 13.9864 7.91185 14.0038 7.99986 14.0038C8.08787 14.0038 8.175 13.9864 8.25624 13.9526C8.33748 13.9187 8.41122 13.8691 8.47319 13.8066L11.8065 10.4733C11.8687 10.4111 11.918 10.3373 11.9516 10.2561C11.9853 10.1749 12.0026 10.0879 12.0026 9.99996C12.0026 9.91205 11.9853 9.82501 11.9516 9.74379C11.918 9.66258 11.8687 9.58879 11.8065 9.52663C11.7444 9.46447 11.6706 9.41516 11.5894 9.38152C11.5081 9.34788 11.4211 9.33057 11.3332 9.33057C11.2453 9.33057 11.1582 9.34788 11.077 9.38152C10.9958 9.41516 10.922 9.46447 10.8599 9.52663ZM5.13986 6.47329L7.99986 3.60663L10.8599 6.47329C10.9218 6.53578 10.9956 6.58537 11.0768 6.61922C11.158 6.65307 11.2452 6.67049 11.3332 6.67049C11.4212 6.67049 11.5083 6.65307 11.5896 6.61922C11.6708 6.58537 11.7445 6.53578 11.8065 6.47329C11.869 6.41132 11.9186 6.33758 11.9525 6.25634C11.9863 6.1751 12.0037 6.08797 12.0037 5.99996C12.0037 5.91195 11.9863 5.82481 11.9525 5.74357C11.9186 5.66234 11.869 5.5886 11.8065 5.52663L8.47319 2.19329C8.41122 2.13081 8.33748 2.08121 8.25624 2.04737C8.175 2.01352 8.08787 1.99609 7.99986 1.99609C7.91185 1.99609 7.82471 2.01352 7.74347 2.04737C7.66224 2.08121 7.5885 2.13081 7.52653 2.19329L4.19319 5.52663C4.13103 5.58879 4.08173 5.66258 4.04809 5.74379C4.01445 5.82501 3.99713 5.91205 3.99713 5.99996C3.99713 6.17749 4.06766 6.34776 4.19319 6.47329C4.31873 6.59883 4.48899 6.66935 4.66653 6.66935C4.84406 6.66935 5.01432 6.59883 5.13986 6.47329Z" fill="#2523CA"/>
</svg>
