<svg width="24" height="25" viewBox="0 0 24 25" fill="none" xmlns="http://www.w3.org/2000/svg">
<path fill-rule="evenodd" clip-rule="evenodd" d="M16.5 20.75H7.5C6.90326 20.75 6.33097 20.5129 5.90901 20.091C5.48705 19.669 5.25 19.0967 5.25 18.5V6.5C5.25 5.90326 5.48705 5.33097 5.90901 4.90901C6.33097 4.48705 6.90326 4.25 7.5 4.25H10.5V8C10.5 9.19347 10.9741 10.3381 11.818 11.182C12.6619 12.0259 13.8065 12.5 15 12.5H18.75V18.5C18.75 19.0967 18.5129 19.669 18.091 20.091C17.669 20.5129 17.0967 20.75 16.5 20.75ZM18.4545 10.25C18.3553 10.0756 18.2332 9.91513 18.0915 9.773L13.227 4.9085C13.0849 4.76677 12.9245 4.64468 12.75 4.5455V8C12.75 8.59674 12.9871 9.16903 13.409 9.59099C13.831 10.0129 14.4033 10.25 15 10.25H18.4545ZM19.6815 8.1815C20.0996 8.59945 20.4312 9.09567 20.6574 9.64182C20.8837 10.188 21.0001 10.7733 21 11.3645V18.5C21 19.6935 20.5259 20.8381 19.682 21.682C18.8381 22.5259 17.6935 23 16.5 23H7.5C6.30653 23 5.16193 22.5259 4.31802 21.682C3.47411 20.8381 3 19.6935 3 18.5V6.5C3 5.30653 3.47411 4.16193 4.31802 3.31802C5.16193 2.47411 6.30653 2 7.5 2H11.6355C12.2267 1.99993 12.812 2.11634 13.3582 2.34257C13.9043 2.5688 14.4006 2.90043 14.8185 3.3185L19.68 8.18L19.6815 8.1815Z" fill="#2523CA"/>
</svg>
