<svg width="18" height="18" viewBox="0 0 18 18" fill="none" xmlns="http://www.w3.org/2000/svg">
<rect width="18" height="18" fill="white"/>
<path d="M14.7137 8C14.7137 12.5 8.71375 17 8.71375 17C8.71375 17 2.71375 12.5 2.71375 8C2.71375 6.4087 3.34589 4.88258 4.4711 3.75736C5.59632 2.63214 7.12245 2 8.71375 2C10.305 2 11.8312 2.63214 12.9564 3.75736C14.0816 4.88258 14.7137 6.4087 14.7137 8Z" stroke="#2523CA" stroke-linecap="round" stroke-linejoin="round"/>
<path d="M8.71375 10.25C9.95639 10.25 10.9637 9.24264 10.9637 8C10.9637 6.75736 9.95639 5.75 8.71375 5.75C7.4711 5.75 6.46375 6.75736 6.46375 8C6.46375 9.24264 7.4711 10.25 8.71375 10.25Z" stroke="#2523CA" stroke-linecap="round" stroke-linejoin="round"/>
</svg>
