<svg width="102" height="102" viewBox="0 0 102 102" fill="none" xmlns="http://www.w3.org/2000/svg">
<path d="M25.6778 83.9576C34.7435 88.6489 48.3621 87.4931 54.9316 85.9165C64.8439 83.5376 73.588 77.6655 79.5882 69.3584C85.5884 61.0513 88.4501 50.8555 87.6577 40.6083C86.8652 30.3611 82.4707 20.7364 75.266 13.4685C68.0613 6.2006 58.5202 1.76752 48.3621 0.968098C38.204 0.16868 28.0969 3.05549 19.8621 9.10833C11.6272 15.1612 5.8062 23.982 3.44797 33.9812C1.08975 43.9805 3.44786 59.5932 3.44786 59.5932L5.38966 98.5763L25.6778 83.9576Z" fill="#EFF1EF" fill-opacity="0.8"/>
<path d="M24.25 64.2501C30.5 64.2501 38.8334 62.1668 38.8334 47.5834V30.9168C38.8334 28.3126 37.2584 26.7147 34.6667 26.7501H26.3334C23.7292 26.7501 22.1667 28.3126 22.1667 30.8584V43.4168C22.1667 46.0209 23.7292 47.5834 26.3334 47.5834C28.4167 47.5834 28.4167 47.5834 28.4167 49.6668V51.7501C28.4167 53.8334 26.3334 55.9168 24.25 55.9168C22.1667 55.9168 22.1667 55.9334 22.1667 58.0647V62.1668C22.1667 64.2501 22.1667 64.2501 24.25 64.2501Z" stroke="white" stroke-width="1.20408" stroke-linecap="round" stroke-linejoin="round"/>
<path d="M49.25 64.2501C55.5 64.2501 63.8334 62.1668 63.8334 47.5834V30.9168C63.8334 28.3126 62.2563 26.7147 59.6667 26.7501H51.3334C48.7292 26.7501 47.1667 28.3126 47.1667 30.8584V43.4168C47.1667 46.0209 48.7292 47.5834 51.3334 47.5834H52.8959C52.8959 52.2709 53.4167 55.9168 47.1667 55.9168V62.1668C47.1667 64.2501 47.1667 64.2501 49.25 64.2501Z" stroke="white" stroke-width="1.20408" stroke-linecap="round" stroke-linejoin="round"/>
</svg>
