<svg width="24" height="25" viewBox="0 0 24 25" fill="none" xmlns="http://www.w3.org/2000/svg">
<g clip-path="url(#clip0_413_5186)">
<path fill-rule="evenodd" clip-rule="evenodd" d="M2 6.5C2 5.70435 2.31607 4.94129 2.87868 4.37868C3.44129 3.81607 4.20435 3.5 5 3.5H19C19.7956 3.5 20.5587 3.81607 21.1213 4.37868C21.6839 4.94129 22 5.70435 22 6.5V16.5C22 17.2957 21.6839 18.0587 21.1213 18.6213C20.5587 19.1839 19.7956 19.5 19 19.5H11.333L8 22C7.176 22.618 6 22.03 6 21V19.5H5C4.20435 19.5 3.44129 19.1839 2.87868 18.6213C2.31607 18.0587 2 17.2957 2 16.5V6.5ZM5 5.5C4.73478 5.5 4.48043 5.60536 4.29289 5.79289C4.10536 5.98043 4 6.23478 4 6.5V16.5C4 16.7652 4.10536 17.0196 4.29289 17.2071C4.48043 17.3946 4.73478 17.5 5 17.5H6.5C6.89782 17.5 7.27936 17.658 7.56066 17.9393C7.84196 18.2206 8 18.6022 8 19V19.5L10.133 17.9C10.4792 17.6404 10.9003 17.5 11.333 17.5H19C19.2652 17.5 19.5196 17.3946 19.7071 17.2071C19.8946 17.0196 20 16.7652 20 16.5V6.5C20 6.23478 19.8946 5.98043 19.7071 5.79289C19.5196 5.60536 19.2652 5.5 19 5.5H5Z" fill="#2523CA"/>
</g>
<defs>
<clipPath id="clip0_413_5186">
<rect width="24" height="24" fill="white" transform="translate(0 0.5)"/>
</clipPath>
</defs>
</svg>
