<svg width="16" height="16" viewBox="0 0 16 16" fill="none" xmlns="http://www.w3.org/2000/svg">
<path fill-rule="evenodd" clip-rule="evenodd" d="M8.39533 15.5053L8.38799 15.5066L8.34066 15.53L8.32733 15.5326L8.31799 15.53L8.27066 15.5066C8.26399 15.504 8.25799 15.506 8.25466 15.51L8.25199 15.5166L8.24066 15.802L8.24399 15.8153L8.25066 15.824L8.31999 15.8733L8.32999 15.876L8.33799 15.8733L8.40733 15.824L8.41533 15.8133L8.41799 15.802L8.40666 15.5173C8.40533 15.5106 8.40066 15.506 8.39533 15.5053ZM8.57199 15.43L8.56333 15.4313L8.43999 15.4933L8.43333 15.5L8.43133 15.5073L8.44333 15.794L8.44666 15.802L8.45199 15.8066L8.58599 15.8686C8.59399 15.8713 8.60133 15.8686 8.60533 15.8633L8.60799 15.854L8.58533 15.4446C8.58333 15.4366 8.57866 15.4313 8.57199 15.43ZM8.09533 15.4313C8.0923 15.4299 8.0889 15.4296 8.08566 15.4303C8.08241 15.431 8.07949 15.4328 8.07733 15.4353L8.07333 15.4446L8.05066 15.854C8.05066 15.862 8.05533 15.8673 8.06199 15.87L8.07199 15.8686L8.20599 15.8066L8.21266 15.8013L8.21533 15.794L8.22666 15.5073L8.22466 15.4993L8.21799 15.4926L8.09533 15.4313Z" fill="white"/>
<path fill-rule="evenodd" clip-rule="evenodd" d="M2 3C2 2.73478 2.10536 2.48043 2.29289 2.29289C2.48043 2.10536 2.73478 2 3 2H13C13.2652 2 13.5196 2.10536 13.7071 2.29289C13.8946 2.48043 14 2.73478 14 3V4.39067C13.9999 4.74426 13.8594 5.08334 13.6093 5.33333L10 8.94267V13.892C10 14.017 9.96808 14.14 9.90721 14.2492C9.84634 14.3584 9.75857 14.4502 9.65223 14.5159C9.54589 14.5816 9.42451 14.6191 9.29962 14.6247C9.17473 14.6303 9.05048 14.6039 8.93867 14.548L6.46067 13.3093C6.32225 13.2401 6.20583 13.1337 6.12447 13.0021C6.0431 12.8705 6.00001 12.7188 6 12.564V8.94267L2.39067 5.33333C2.1406 5.08334 2.00008 4.74426 2 4.39067V3ZM3.33333 3.33333V4.39067L7.04 8.09733C7.13297 8.19018 7.20672 8.30044 7.25705 8.42181C7.30738 8.54318 7.33331 8.67328 7.33333 8.80467V12.2547L8.66667 12.9213V8.80467C8.66667 8.53933 8.772 8.28467 8.96 8.098L12.6667 4.39V3.33333H3.33333Z" fill="#2523CA"/>
</svg>
