<svg width="16" height="16" viewBox="0 0 16 16" fill="none" xmlns="http://www.w3.org/2000/svg">
<g clip-path="url(#clip0_1667_13952)">
<path d="M10.632 2.48538C10.8006 2.28622 11.0091 2.1241 11.2442 2.00937C11.4793 1.89463 11.7359 1.8298 11.9977 1.819C12.2594 1.8082 12.5206 1.85167 12.7645 1.94663C13.0084 2.0416 13.2297 2.18599 13.4143 2.37058C13.5989 2.55518 13.7427 2.77594 13.8367 3.01879C13.9306 3.26165 13.9725 3.52127 13.9598 3.78111C13.9471 4.04094 13.88 4.2953 13.7628 4.52796C13.6456 4.76063 13.4809 4.96649 13.2791 5.13244L4.34527 14.0663L0.705566 15.0589L1.69821 11.4192L10.632 2.48538Z" stroke="#FFA726" stroke-linecap="round" stroke-linejoin="round"/>
<path d="M9.30811 3.80859L11.9552 6.45565" stroke="#FFA726" stroke-linecap="round" stroke-linejoin="round"/>
</g>
<defs>
<clipPath id="clip0_1667_13952">
<rect width="15" height="15" fill="white" transform="translate(0.26416 0.5)"/>
</clipPath>
</defs>
</svg>
