<svg width="39" height="39" viewBox="0 0 39 39" fill="none" xmlns="http://www.w3.org/2000/svg">
<rect x="0.549805" y="0.569824" width="37.9004" height="37.93" rx="8.5" fill="white"/>
<rect x="0.549805" y="0.569824" width="37.9004" height="37.93" rx="8.5" stroke="#2523CA"/>
<path d="M17.8171 15.4637L18.2856 15.2889C18.0451 14.6445 17.8784 13.975 17.7884 13.2931L17.7884 13.2931L17.7878 13.2885C17.7199 12.8084 17.4798 12.3693 17.1121 12.0531C16.7451 11.7374 16.276 11.5658 15.7921 11.5699L13.5468 11.5699L13.5463 11.5699C13.2689 11.5702 12.9945 11.6282 12.7407 11.7403C12.487 11.8524 12.2593 12.0161 12.0723 12.221C11.8852 12.4259 11.7429 12.6675 11.6543 12.9304L12.1282 13.09L11.6543 12.9304C11.5658 13.1933 11.5329 13.4718 11.5579 13.7481L11.5579 13.7481L11.5587 13.7559C11.8128 16.149 12.6269 18.4486 13.9351 20.4686C15.1241 22.3393 16.7102 23.9254 18.5809 25.1145C20.5917 26.4181 22.8802 27.232 25.2625 27.4908L25.2625 27.4909L26.9498 25.4954H27.4498V25.4943V23.2536C27.4602 22.7659 27.292 22.2911 26.9765 21.9188C26.6597 21.5448 26.2164 21.3003 25.731 21.2318L25.731 21.2318L25.7265 21.2312C25.0448 21.1413 24.3754 20.9746 23.7311 20.7342C23.3737 20.6 22.9853 20.571 22.6119 20.6506C22.2382 20.7303 21.8952 20.9155 21.6236 21.1841L21.6216 21.1861L20.9442 21.8635C19.4006 20.9171 18.1026 19.619 17.1561 18.0755L17.8336 17.3981L17.8336 17.3981L17.8355 17.3961C18.1042 17.1244 18.2893 16.7814 18.369 16.4078C18.4487 16.0341 18.4196 15.6454 18.2852 15.2878L17.8171 15.4637ZM17.8171 15.4637C17.9179 15.7319 17.9398 16.0233 17.88 16.3035C17.8203 16.5836 17.6814 16.8408 17.48 17.0445L15.7943 12.0699C16.1579 12.0663 16.5104 12.1951 16.7861 12.4322C17.0618 12.6692 17.2418 12.9985 17.2927 13.3585C17.3876 14.0778 17.5635 14.784 17.8171 15.4637Z" stroke="#2523CA" stroke-linecap="round" stroke-linejoin="round"/>
</svg>
