<svg width="76" height="75" viewBox="0 0 76 75" fill="none" xmlns="http://www.w3.org/2000/svg">
<g filter="url(#filter0_d_1624_26444)">
<rect width="32.0513" height="32" rx="16" transform="matrix(1 -8.72829e-08 -8.75629e-08 -1 21.9487 51)" fill="white"/>
<path d="M31.9637 35.6331L44.6193 35.6331C44.7871 35.6331 44.9481 35.5664 45.0667 35.4477C45.1854 35.329 45.2521 35.1681 45.2521 35.0003C45.2521 34.8325 45.1854 34.6715 45.0667 34.5528C44.9481 34.4342 44.7871 34.3675 44.6193 34.3675L31.9637 34.3675C31.7958 34.3675 31.6349 34.4342 31.5162 34.5528C31.3976 34.6715 31.3309 34.8325 31.3309 35.0003C31.3309 35.1681 31.3976 35.329 31.5162 35.4477C31.6349 35.5664 31.7958 35.6331 31.9637 35.6331Z" fill="#2C3CCC"/>
<path d="M32.2254 35L37.4737 29.753C37.5925 29.6342 37.6593 29.473 37.6593 29.305C37.6593 29.1369 37.5925 28.9758 37.4737 28.857C37.3549 28.7382 37.1937 28.6714 37.0257 28.6714C36.8577 28.6714 36.6965 28.7382 36.5777 28.857L30.8827 34.552C30.8238 34.6108 30.777 34.6806 30.7451 34.7575C30.7132 34.8344 30.6968 34.9168 30.6968 35C30.6968 35.0832 30.7132 35.1657 30.7451 35.2425C30.777 35.3194 30.8238 35.3892 30.8827 35.448L36.5777 41.143C36.6965 41.2619 36.8577 41.3286 37.0257 41.3286C37.1938 41.3286 37.3549 41.2619 37.4737 41.143C37.5925 41.0242 37.6593 40.8631 37.6593 40.695C37.6593 40.527 37.5925 40.3658 37.4737 40.247L32.2254 35Z" fill="#2C3CCC"/>
</g>
<defs>
<filter id="filter0_d_1624_26444" x="0.615398" y="0.333334" width="74.7179" height="74.6667" filterUnits="userSpaceOnUse" color-interpolation-filters="sRGB">
<feFlood flood-opacity="0" result="BackgroundImageFix"/>
<feColorMatrix in="SourceAlpha" type="matrix" values="0 0 0 0 0 0 0 0 0 0 0 0 0 0 0 0 0 0 127 0" result="hardAlpha"/>
<feOffset dy="2.66667"/>
<feGaussianBlur stdDeviation="10.6667"/>
<feComposite in2="hardAlpha" operator="out"/>
<feColorMatrix type="matrix" values="0 0 0 0 0.119264 0 0 0 0 0.138352 0 0 0 0 0.434219 0 0 0 0.16 0"/>
<feBlend mode="normal" in2="BackgroundImageFix" result="effect1_dropShadow_1624_26444"/>
<feBlend mode="normal" in="SourceGraphic" in2="effect1_dropShadow_1624_26444" result="shape"/>
</filter>
</defs>
</svg>
