<svg width="75" height="75" viewBox="0 0 75 75" fill="none" xmlns="http://www.w3.org/2000/svg">
<g filter="url(#filter0_d_1453_37447)">
<rect x="53.4409" y="51" width="32.0513" height="32" rx="16" transform="rotate(-180 53.4409 51)" fill="white"/>
<path d="M43.4261 35.6331L30.7704 35.6331C30.6026 35.6331 30.4417 35.5664 30.323 35.4477C30.2043 35.329 30.1377 35.1681 30.1377 35.0003C30.1377 34.8325 30.2043 34.6715 30.323 34.5528C30.4417 34.4342 30.6026 34.3675 30.7704 34.3675L43.4261 34.3675C43.5939 34.3675 43.7548 34.4342 43.8735 34.5528C43.9922 34.6715 44.0588 34.8325 44.0588 35.0003C44.0588 35.1681 43.9922 35.329 43.8735 35.4477C43.7548 35.5664 43.5939 35.6331 43.4261 35.6331Z" fill="#2C3CCC"/>
<path d="M43.1642 35L37.9159 29.753C37.7971 29.6342 37.7304 29.473 37.7304 29.305C37.7304 29.1369 37.7971 28.9758 37.9159 28.857C38.0347 28.7382 38.1959 28.6714 38.3639 28.6714C38.532 28.6714 38.6931 28.7382 38.8119 28.857L44.507 34.552C44.5659 34.6108 44.6127 34.6806 44.6446 34.7575C44.6765 34.8344 44.6929 34.9168 44.6929 35C44.6929 35.0832 44.6765 35.1657 44.6446 35.2425C44.6127 35.3194 44.5659 35.3892 44.507 35.448L38.8119 41.143C38.6931 41.2619 38.532 41.3286 38.3639 41.3286C38.1959 41.3286 38.0347 41.2619 37.9159 41.143C37.7971 41.0242 37.7304 40.8631 37.7304 40.695C37.7304 40.527 37.7971 40.3658 37.9159 40.247L43.1642 35Z" fill="#2C3CCC"/>
</g>
<defs>
<filter id="filter0_d_1453_37447" x="0.0563164" y="0.333334" width="74.7179" height="74.6667" filterUnits="userSpaceOnUse" color-interpolation-filters="sRGB">
<feFlood flood-opacity="0" result="BackgroundImageFix"/>
<feColorMatrix in="SourceAlpha" type="matrix" values="0 0 0 0 0 0 0 0 0 0 0 0 0 0 0 0 0 0 127 0" result="hardAlpha"/>
<feOffset dy="2.66667"/>
<feGaussianBlur stdDeviation="10.6667"/>
<feComposite in2="hardAlpha" operator="out"/>
<feColorMatrix type="matrix" values="0 0 0 0 0.119264 0 0 0 0 0.138352 0 0 0 0 0.434219 0 0 0 0.16 0"/>
<feBlend mode="normal" in2="BackgroundImageFix" result="effect1_dropShadow_1453_37447"/>
<feBlend mode="normal" in="SourceGraphic" in2="effect1_dropShadow_1453_37447" result="shape"/>
</filter>
</defs>
</svg>
