<svg width="18" height="18" viewBox="0 0 18 18" fill="none" xmlns="http://www.w3.org/2000/svg">
<rect width="18" height="18" fill="white"/>
<path d="M13.7137 5V2.75C13.7137 2.55109 13.6347 2.36032 13.4941 2.21967C13.3534 2.07902 13.1627 2 12.9637 2H3.21375C2.81592 2 2.43439 2.15804 2.15308 2.43934C1.87178 2.72064 1.71375 3.10218 1.71375 3.5C1.71375 3.89782 1.87178 4.27936 2.15308 4.56066C2.43439 4.84196 2.81592 5 3.21375 5H14.4637C14.6627 5 14.8534 5.07902 14.9941 5.21967C15.1347 5.36032 15.2137 5.55109 15.2137 5.75V8.75M15.2137 8.75H12.9637C12.5659 8.75 12.1844 8.90804 11.9031 9.18934C11.6218 9.47064 11.4637 9.85218 11.4637 10.25C11.4637 10.6478 11.6218 11.0294 11.9031 11.3107C12.1844 11.592 12.5659 11.75 12.9637 11.75H15.2137C15.4127 11.75 15.6034 11.671 15.7441 11.5303C15.8847 11.3897 15.9637 11.1989 15.9637 11V9.5C15.9637 9.30109 15.8847 9.11032 15.7441 8.96967C15.6034 8.82902 15.4127 8.75 15.2137 8.75Z" stroke="#2523CA" stroke-linecap="round" stroke-linejoin="round"/>
<path d="M1.71375 3.5V14C1.71375 14.3978 1.87178 14.7794 2.15308 15.0607C2.43439 15.342 2.81592 15.5 3.21375 15.5H14.4637C14.6627 15.5 14.8534 15.421 14.9941 15.2803C15.1347 15.1397 15.2137 14.9489 15.2137 14.75V11.75" stroke="#2523CA" stroke-linecap="round" stroke-linejoin="round"/>
</svg>
