<svg width="27" height="27" viewBox="0 0 27 27" fill="none" xmlns="http://www.w3.org/2000/svg">
<path d="M4.16602 22.8868L5.52129 17.935C4.37047 15.9352 3.98178 13.5863 4.42703 11.3222C4.87229 9.058 6.12139 7.03153 7.94363 5.61706C9.76586 4.20259 12.0381 3.49569 14.3407 3.62692C16.6433 3.75816 18.8206 4.71866 20.4705 6.33103C22.1204 7.94339 23.1315 10.0987 23.3169 12.3988C23.5023 14.6989 22.8495 16.9884 21.4791 18.8445C20.1088 20.7006 18.1135 21.9978 15.8617 22.4965C13.6099 22.9953 11.2538 22.6619 9.22852 21.5579M6.45996 20.6192L9.46582 19.8282C11.12 20.9029 13.115 21.3235 15.0623 21.008C17.0096 20.6926 18.7698 19.6638 20.0002 18.1219C21.2305 16.5799 21.843 14.6353 21.7184 12.6666C21.5937 10.6978 20.7408 8.84597 19.3258 7.47154C17.9107 6.09712 16.0348 5.29852 14.0633 5.23124C12.0918 5.16396 10.1658 5.83283 8.66036 7.10759C7.15491 8.38235 6.17776 10.1718 5.91919 12.1274C5.66061 14.0831 6.13911 16.0649 7.26152 17.6872M12.1658 10.9899C12.2713 11.2536 12.1658 11.5172 11.5857 12.1606C11.2693 12.477 11.3748 12.5825 11.9338 13.3735C12.4928 14.1645 13.4104 14.9028 14.2541 15.2983C15.0979 15.6938 15.0451 15.6674 15.3984 15.2456C16.1895 14.3491 15.9785 14.1381 16.7695 14.4967L18.1934 15.1823C18.6152 15.3932 18.6363 15.3932 18.6416 15.6569C18.6469 15.9206 18.552 16.6061 18.2725 16.9014C17.993 17.1967 16.9541 18.2092 15.1084 17.5342C13.2627 16.8592 11.9971 16.3213 9.8877 13.4737C7.77832 10.626 9.80332 8.93852 10.0775 8.83305C10.3518 8.72759 10.4467 8.75395 10.974 8.7645C11.1146 8.7645 11.2377 8.85239 11.3432 9.02817" fill="#2523CA"/>
</svg>
